<svg id="Layer_1" data-name="Layer 1" xmlns="http://www.w3.org/2000/svg" viewBox="0 0 850.04 701.99"><defs><style>.cls-1{fill:#3f3d56;}.cls-2{fill:#fff;}.cls-3{fill:#ffb8b8;}.cls-4{fill:#2f2e41;}.cls-5{fill:#003e6a;}.cls-6{fill:#e6e6e6;}</style></defs><title>mobile</title><path class="cls-1" d="M657.37,123.11h0V35.69A35.69,35.69,0,0,0,621.63,0H347.91a35.69,35.69,0,0,0-35.69,35.69V80.51a2.89,2.89,0,0,0-2.83,2.89v22.2a2.9,2.9,0,0,0,2.83,2.89v23.25h-.14a2.9,2.9,0,0,0-2.9,2.9h0v42.93a2.89,2.89,0,0,0,2.9,2.89h.14v17h0a2.9,2.9,0,0,0-2.9,2.9h0v43.35a2.89,2.89,0,0,0,2.9,2.89h0v419a35.69,35.69,0,0,0,35.69,35.69H621.63a35.69,35.69,0,0,0,35.69-35.69V208.13h0a5.15,5.15,0,0,0,5.15-5.15h0V128.27A5.16,5.16,0,0,0,657.37,123.11Z"/><path class="cls-2" d="M636,45.68v610a27.41,27.41,0,0,1-27.41,27.4H360.94a27.42,27.42,0,0,1-27.41-27.4v-610a27.41,27.41,0,0,1,27.41-27.41H398v4.81a22.59,22.59,0,0,0,22.57,22.57h126a22.57,22.57,0,0,0,22.52-22.57V18.32H608.6A27.41,27.41,0,0,1,636,45.68Z"/><path class="cls-3" d="M234.41,342.28a10.75,10.75,0,0,0-13.9,6.14,11.46,11.46,0,0,0-.52,1.82l-88.26,48,15.52,17.46,82-52.6a10.8,10.8,0,0,0,5.2-20.81Z"/><polygon class="cls-3" points="211.9 687.55 222.9 680.44 200.7 634.63 184.47 645.13 211.9 687.55"/><path class="cls-4" d="M250.71,676.93l-34.56,22.36h0l-8.64-13.36h0l21.71-14a15.31,15.31,0,0,1,21.17,4.54h0l.32.5Z"/><polygon class="cls-3" points="88.51 689.21 101.61 689.21 107.84 638.69 88.51 638.69 88.51 689.21"/><path class="cls-4" d="M126.87,701.37H85.7V685.46h25.86a15.32,15.32,0,0,1,15.31,15.31h0v.6Z"/><path class="cls-1" d="M389,99H362a2.5,2.5,0,0,1,0-5h27a2.5,2.5,0,0,1,0,5Z"/><path class="cls-1" d="M389,106H362a2.5,2.5,0,0,1,0-5h27a2.5,2.5,0,0,1,0,5Z"/><path class="cls-1" d="M389,113H362a2.5,2.5,0,0,1,0-5h27a2.5,2.5,0,0,1,0,5Z"/><path class="cls-1" d="M598.29,106h-.91l-.35-.29a7.6,7.6,0,0,0,1.78-4.89,7.44,7.44,0,1,0-7.4,7.48,7.71,7.71,0,0,0,4.88-1.78l.34.29v.92l5.74,5.75,1.72-1.72Zm-6.88,0a5.18,5.18,0,1,1,5.16-5.2h0v0a5.14,5.14,0,0,1-5.12,5.18h0Z"/><path class="cls-5" d="M444,191H395.5a11,11,0,0,1,0-22H444a11,11,0,0,1,0,22Z"/><path class="cls-6" d="M592.5,215h-202a6,6,0,0,1,0-12h202a6,6,0,0,1,0,12Z"/><path class="cls-6" d="M464.7,239H390.5a6,6,0,0,1,0-12h74.2a6,6,0,1,1,0,12Z"/><path class="cls-5" d="M444,457H395.5a11,11,0,0,1,0-22H444a11,11,0,0,1,0,22Z"/><path class="cls-6" d="M592.5,481h-202a6,6,0,0,1,0-12h202a6,6,0,0,1,0,12Z"/><path class="cls-6" d="M464.7,505H390.5a6,6,0,0,1,0-12h74.2a6,6,0,1,1,0,12Z"/><path class="cls-5" d="M444,580H395.5a11,11,0,0,1,0-22H444a11,11,0,0,1,0,22Z"/><path class="cls-6" d="M592.5,604h-202a6,6,0,0,1,0-12h202a6,6,0,0,1,0,12Z"/><path class="cls-6" d="M464.7,628H390.5a6,6,0,0,1,0-12h74.2a6,6,0,1,1,0,12Z"/><path class="cls-5" d="M621,394.49H235a8.51,8.51,0,0,1-8.5-8.5V281a8.52,8.52,0,0,1,8.5-8.5H621a8.52,8.52,0,0,1,8.5,8.5V386A8.51,8.51,0,0,1,621,394.49Z"/><path class="cls-4" d="M96.23,519.41C99.92,545.3,80.38,660,82.55,660l28.06-.15c1-1.92,13.88-63.81,17.92-73.74,5.64-13.78,11.33-27.73,13.55-42.45,2.09-13.82,1.06-27.9-.3-41.81a2.64,2.64,0,0,0-2.21-3,2.69,2.69,0,0,0-.85,0l-37.65-1.94c-7.76-.4-9.6-2.1-8.42,5.52C93.47,508.11,95.41,513.65,96.23,519.41Z"/><path class="cls-4" d="M103.63,456.46C96,467.46,88,480.12,90.5,493.29c1.93,10,9.55,17.75,16.74,25,28.74,28.86,85.41,156.2,85.41,156.2,27.35-17.5-.65.5,27.1-18-2.46-.19-58.35-201.1-63-201.37C138,453.88,121.88,452.05,103.63,456.46Z"/><path class="cls-6" d="M133.89,351.76c-3.89-3.46-31.19-14.15-31.19-14.15a4.51,4.51,0,0,0-1.51.05c-1.55.39-2.26,2.32-1.93,3.88s-2.39,27.23-3.09,38.9c-1.23,20.36,10.76,66.5,10.65,67.91a21.07,21.07,0,0,1-6.2,13.29c.93,1.16,60.26,3.49,64.3,4.86.81-1-4.6-74.21-4.85-78.35C159.66,381.88,139,356.52,133.89,351.76Z"/><path class="cls-3" d="M91.57,510.55a10.73,10.73,0,0,0,4.83-14.4,10.32,10.32,0,0,0-1-1.62l25-138.54-23.36-.31-17.39,137a10.8,10.8,0,0,0,11.87,17.87Z"/><path class="cls-6" d="M91.37,366.27a4.44,4.44,0,0,1-2.76-.72c-1.39-1.19,10-19.4,12.19-19.67,7.29-.84,14.79-1.12,21.86.85s13.72,6.45,16.88,13.08c1.32,2.76-8.25,16.65-12.6,14.61C121.73,372,98.23,366.44,91.37,366.27Z"/><circle class="cls-3" cx="117.1" cy="309.88" r="26.24"/><path class="cls-4" d="M91.33,353.26a21.92,21.92,0,0,0,23.09-28.72c-1-3.14-2.79-6-3.75-9.19s-1-6.91,1.14-9.45c4.15-5,12.15-1.84,18.54-2.83,6.82-1.05,12.05-7.59,12.6-14.47s-3-13.68-8.38-18.05-12.21-6.52-19.08-7.2a51.59,51.59,0,0,0-52.95,70.5c2.86,7.17,7.55,13.86,14.2,17.79s15.44,4.68,22.08.71"/><path class="cls-2" d="M372.28,320.49H305.22c-4.26,0-7.72-4.93-7.72-11s3.46-11,7.72-11h67.06c4.26,0,7.72,4.94,7.72,11S376.54,320.49,372.28,320.49Z"/><path class="cls-6" d="M552.5,344.49h-249a6,6,0,0,1,0-12h249a6,6,0,0,1,0,12Z"/><path class="cls-6" d="M424.7,368.49H303.5a6,6,0,0,1,0-12H424.7a6,6,0,1,1,0,12Z"/><rect class="cls-1" y="699.99" width="790" height="2"/><path class="cls-1" d="M499.59,371.46h.15v17.05h-.05a2.89,2.89,0,0,0-2.89,2.89h0v43.35a2.9,2.9,0,0,0,2.89,2.9h.05V702h345.1V399.12h0A5.16,5.16,0,0,0,850,394h0V319.26a5.15,5.15,0,0,0-5.16-5.15h0V226.68A35.69,35.69,0,0,0,809.15,191H535.43a35.69,35.69,0,0,0-35.69,35.69V271.5a2.9,2.9,0,0,0-2.83,2.89v22.2a2.89,2.89,0,0,0,2.83,2.89v23.26h-.15a2.89,2.89,0,0,0-2.89,2.89h0v42.93A2.9,2.9,0,0,0,499.59,371.46Z"/><path class="cls-2" d="M823.53,702V236.67a27.41,27.41,0,0,0-27.41-27.36H756.61v4.76a22.57,22.57,0,0,1-22.52,22.57h-126a22.58,22.58,0,0,1-22.57-22.57v-4.81H548.46a27.41,27.41,0,0,0-27.41,27.41V702Z"/><circle id="b5dcbba4-f290-467d-a612-e64d8f6895fb" class="cls-5" cx="672.88" cy="445.99" r="84.45"/><path class="cls-2" d="M697.91,451.76l-21,21.63a4.79,4.79,0,0,1-3.5,1.41h-.07a4.8,4.8,0,0,1-3.51-1.41l-21-21.63-.22-.22a4.63,4.63,0,0,1,.22-6.55,5.17,5.17,0,0,1,7.08,0l12.44,13V424.47a5,5,0,0,1,10,0V458l12.43-13a5.18,5.18,0,0,1,7.09,0l.22.22A4.65,4.65,0,0,1,697.91,451.76Z"/></svg>