<?xml version="1.0"?>
<svg fill="#006ca3" xmlns="http://www.w3.org/2000/svg" viewBox="0 0 64 64" width="512" height="512"><g id="Layer_4" data-name="Layer 4"><path d="M59,55a4,4,0,0,0-4-4H51.34A15.75,15.75,0,0,1,45,38.4V36a9,9,0,0,0-3-6.69V27a4,4,0,0,0-3-3.86V22a3,3,0,0,0-2.17-2.87L33,1.78a1,1,0,0,0-2,0L27.17,19.13A3,3,0,0,0,25,22v1.14A4,4,0,0,0,22,27v2.31A9,9,0,0,0,19,36v2.4A15.75,15.75,0,0,1,12.66,51H9a4,4,0,0,0-4,4,4,4,0,0,0-4,4v3a1,1,0,0,0,1,1H62a1,1,0,0,0,1-1V59A4,4,0,0,0,59,55ZM32,6.61,34.75,19h-5.5ZM28,21h8a1,1,0,0,1,1,1v1H27V22A1,1,0,0,1,28,21Zm-4,6a2,2,0,0,1,2-2H38a2,2,0,0,1,2,2V28A9,9,0,0,0,36,27H28A9,9,0,0,0,24,28ZM21,38.4V36a7,7,0,0,1,7-7h8a7,7,0,0,1,7,7v2.4A17.75,17.75,0,0,0,48.28,51H39V44.49a7,7,0,0,0-2-5l-4.24-4.25a1,1,0,0,0-1.42,0l-4.24,4.25a7,7,0,0,0-2.05,5V51H15.72A17.75,17.75,0,0,0,21,38.4ZM34,51H30V45.07a4,4,0,0,1,1.17-2.83l.83-.83.83.83A4.06,4.06,0,0,1,34,45.07Zm.24-10.17-1.53-1.54a1,1,0,0,0-1.42,0l-1.53,1.54A5.93,5.93,0,0,0,28,45.07V51H27V44.49A5,5,0,0,1,28.46,41L32,37.41,35.54,41A5,5,0,0,1,37,44.49V51H36V45.07A5.93,5.93,0,0,0,34.24,40.83ZM9,53H55a2,2,0,0,1,2,2H7A2,2,0,0,1,9,53Zm52,8H3V59a2,2,0,0,1,2-2H59a2,2,0,0,1,2,2Z"/><path d="M49,17H59a4,4,0,1,0-.1-8,5,5,0,0,0-9.8,0,4,4,0,1,0-.1,8Zm0-6a1.9,1.9,0,0,1,.68.13,1,1,0,0,0,.93-.14,1,1,0,0,0,.41-.85S51,10,51,10a3,3,0,0,1,6,0s0,.15,0,.18a1,1,0,0,0,1.34,1A1.9,1.9,0,0,1,59,11a2,2,0,0,1,0,4H49a2,2,0,0,1,0-4Z"/><path d="M5,23H15a4,4,0,1,0-.1-8,5,5,0,0,0-9.8,0A4,4,0,1,0,5,23Zm0-6a1.9,1.9,0,0,1,.68.13A1,1,0,0,0,6.61,17,1,1,0,0,0,7,16.14S7,16,7,16a3,3,0,0,1,6,0s0,.15,0,.18a1,1,0,0,0,1.34,1A1.9,1.9,0,0,1,15,17a2,2,0,0,1,0,4H5a2,2,0,0,1,0-4Z"/></g></svg>
