<?xml version="1.0" encoding="utf-8"?>
<!-- Generator: Adobe Illustrator 22.0.1, SVG Export Plug-In . SVG Version: 6.00 Build 0)  -->
<svg version="1.1" id="Layer_1" xmlns="http://www.w3.org/2000/svg" xmlns:xlink="http://www.w3.org/1999/xlink" x="0px" y="0px"
	 viewBox="0 0 850 702" style="enable-background:new 0 0 850 702;" xml:space="preserve">
<style type="text/css">
	.st0{fill:#3F3D56;}
	.st1{fill:#FFFFFF;}
	.st2{fill:#FFB8B8;}
	.st3{fill:#2F2E41;}
	.st4{fill:#003E6A;}
	.st5{fill:#E6E6E6;}
	.st6{fill:#CCCCCC;}
</style>
<title>mobile</title>
<path class="st0" d="M657.4,123.1L657.4,123.1V35.7c0-19.7-16-35.7-35.7-35.7c0,0,0,0-0.1,0H347.9c-19.7,0-35.7,16-35.7,35.7l0,0
	v44.8c-1.6,0-2.8,1.3-2.8,2.9v22.2c0,1.6,1.3,2.9,2.8,2.9v23.3h-0.1c-1.6,0-2.9,1.3-2.9,2.9l0,0v42.9c0,1.6,1.3,2.9,2.9,2.9
	c0,0,0,0,0,0h0.1v17l0,0c-1.6,0-2.9,1.3-2.9,2.9l0,0v43.3c0,1.6,1.3,2.9,2.9,2.9c0,0,0,0,0,0l0,0v419c0,19.7,16,35.7,35.7,35.7l0,0
	h273.7c19.7,0,35.7-16,35.7-35.7l0,0V208.1l0,0c2.8,0,5.2-2.3,5.2-5.1v0l0,0v-74.7C662.5,125.4,660.2,123.1,657.4,123.1z"/>
<path class="st1" d="M636,45.7v610c0,15.1-12.3,27.4-27.4,27.4H360.9c-15.1,0-27.4-12.3-27.4-27.4v-610c0-15.1,12.3-27.4,27.4-27.4
	l0,0H398v4.8c0,12.5,10.1,22.6,22.6,22.6h126c12.4,0,22.5-10.1,22.5-22.6v-4.8h39.5C623.7,18.3,636,30.6,636,45.7z"/>
<path class="st2" d="M234.4,342.3c-5.5-2.1-11.8,0.6-13.9,6.1c-0.2,0.6-0.4,1.2-0.5,1.8l-88.3,48l15.5,17.5l82-52.6
	c5.9,0.8,11.3-3.4,12.1-9.3C242,348.8,239.1,344.1,234.4,342.3L234.4,342.3z"/>
<polygon class="st2" points="211.9,687.5 222.9,680.4 200.7,634.6 184.5,645.1 "/>
<path class="st3" d="M250.7,676.9l-34.6,22.4l0,0l-8.6-13.4l0,0l21.7-14c7.1-4.6,16.6-2.6,21.2,4.5l0,0L250.7,676.9L250.7,676.9z"/>
<polygon class="st2" points="88.5,689.2 101.6,689.2 107.8,638.7 88.5,638.7 "/>
<path class="st3" d="M126.9,701.4H85.7v-15.9h25.9c8.5,0,15.3,6.9,15.3,15.3l0,0C126.9,700.8,126.9,701.4,126.9,701.4z"/>
<path class="st0" d="M389,99h-27c-1.4,0-2.5-1.1-2.5-2.5s1.1-2.5,2.5-2.5h27c1.4,0,2.5,1.1,2.5,2.5S390.4,99,389,99z"/>
<path class="st0" d="M389,106h-27c-1.4,0-2.5-1.1-2.5-2.5s1.1-2.5,2.5-2.5h27c1.4,0,2.5,1.1,2.5,2.5S390.4,106,389,106z"/>
<path class="st0" d="M389,113h-27c-1.4,0-2.5-1.1-2.5-2.5s1.1-2.5,2.5-2.5h27c1.4,0,2.5,1.1,2.5,2.5S390.4,113,389,113z"/>
<path class="st0" d="M598.3,106h-0.9l-0.3-0.3c1.2-1.4,1.8-3.1,1.8-4.9c0-4.1-3.4-7.4-7.5-7.4c-4.1,0-7.4,3.4-7.4,7.5
	c0,4.1,3.4,7.4,7.5,7.4c1.8,0,3.5-0.6,4.9-1.8l0.3,0.3v0.9l5.7,5.8l1.7-1.7L598.3,106z M591.4,106c-2.9,0-5.2-2.3-5.2-5.2
	s2.3-5.2,5.2-5.2c2.9,0,5.2,2.3,5.2,5.2l0,0l0,0C596.6,103.6,594.3,106,591.4,106C591.5,106,591.5,106,591.4,106L591.4,106
	L591.4,106z"/>
<path class="st4" d="M444,191h-48.5c-6.1,0-11-4.9-11-11s4.9-11,11-11H444c6.1,0,11,4.9,11,11S450.1,191,444,191z"/>
<path class="st5" d="M592.5,215h-202c-3.3,0-6-2.7-6-6s2.7-6,6-6h202c3.3,0,6,2.7,6,6S595.8,215,592.5,215z"/>
<path class="st5" d="M464.7,239h-74.2c-3.3,0-6-2.7-6-6s2.7-6,6-6h74.2c3.3,0,6,2.7,6,6S468,239,464.7,239z"/>
<path class="st4" d="M444,457h-48.5c-6.1,0-11-4.9-11-11s4.9-11,11-11H444c6.1,0,11,4.9,11,11S450.1,457,444,457z"/>
<path class="st5" d="M592.5,481h-202c-3.3,0-6-2.7-6-6s2.7-6,6-6h202c3.3,0,6,2.7,6,6S595.8,481,592.5,481z"/>
<path class="st5" d="M464.7,505h-74.2c-3.3,0-6-2.7-6-6s2.7-6,6-6h74.2c3.3,0,6,2.7,6,6S468,505,464.7,505z"/>
<path class="st4" d="M444,580h-48.5c-6.1,0-11-4.9-11-11s4.9-11,11-11H444c6.1,0,11,4.9,11,11S450.1,580,444,580z"/>
<path class="st5" d="M592.5,604h-202c-3.3,0-6-2.7-6-6s2.7-6,6-6h202c3.3,0,6,2.7,6,6S595.8,604,592.5,604z"/>
<path class="st5" d="M464.7,628h-74.2c-3.3,0-6-2.7-6-6s2.7-6,6-6h74.2c3.3,0,6,2.7,6,6S468,628,464.7,628z"/>
<path class="st4" d="M621,394.5H235c-4.7,0-8.5-3.8-8.5-8.5V281c0-4.7,3.8-8.5,8.5-8.5h386c4.7,0,8.5,3.8,8.5,8.5v105
	C629.5,390.7,625.7,394.5,621,394.5z"/>
<path class="st3" d="M96.2,519.4C99.9,545.3,80.4,660,82.6,660l28.1-0.2c1-1.9,13.9-63.8,17.9-73.7c5.6-13.8,11.3-27.7,13.6-42.5
	c2.1-13.8,1.1-27.9-0.3-41.8c0.2-1.4-0.8-2.8-2.2-3c-0.3,0-0.6,0-0.9,0l-37.7-1.9c-7.8-0.4-9.6-2.1-8.4,5.5
	C93.5,508.1,95.4,513.7,96.2,519.4z"/>
<path class="st3" d="M103.6,456.5c-7.6,11-15.6,23.7-13.1,36.8c1.9,10,9.6,17.8,16.7,25c28.7,28.9,85.4,156.2,85.4,156.2
	c27.4-17.5-0.6,0.5,27.1-18c-2.5-0.2-58.4-201.1-63-201.4C138,453.9,121.9,452,103.6,456.5z"/>
<path class="st5" d="M133.9,351.8c-3.9-3.5-31.2-14.1-31.2-14.1c-0.5-0.1-1-0.1-1.5,0c-1.6,0.4-2.3,2.3-1.9,3.9s-2.4,27.2-3.1,38.9
	c-1.2,20.4,10.8,66.5,10.7,67.9c-0.4,5-2.6,9.7-6.2,13.3c0.9,1.2,60.3,3.5,64.3,4.9c0.8-1-4.6-74.2-4.9-78.4
	C159.7,381.9,139,356.5,133.9,351.8z"/>
<path class="st2" d="M91.6,510.5c5.3-2.6,7.5-9.1,4.8-14.4c0,0,0,0,0,0c-0.3-0.6-0.6-1.1-1-1.6l25-138.5L97,355.7l-17.4,137
	c-4.6,3.9-5.1,10.7-1.3,15.2C81.6,511.7,87.1,512.8,91.6,510.5L91.6,510.5z"/>
<path class="st5" d="M91.4,366.3c-1,0.1-1.9-0.2-2.8-0.7c-1.4-1.2,10-19.4,12.2-19.7c7.3-0.8,14.8-1.1,21.9,0.9
	c7.1,2,13.7,6.5,16.9,13.1c1.3,2.8-8.3,16.6-12.6,14.6C121.7,372,98.2,366.4,91.4,366.3z"/>
<circle class="st2" cx="117.1" cy="309.9" r="26.2"/>
<path class="st3" d="M91.3,353.3c12,1.3,22.8-7.5,24.1-19.5c0.3-3.1,0-6.2-1-9.2c-1-3.1-2.8-6-3.8-9.2s-1-6.9,1.1-9.5
	c4.2-5,12.2-1.8,18.5-2.8c6.8-1,12.1-7.6,12.6-14.5s-3-13.7-8.4-18s-12.2-6.5-19.1-7.2c-28.4-2.8-53.6,17.9-56.4,46.3
	c-0.8,8.2,0.4,16.5,3.4,24.2c2.9,7.2,7.5,13.9,14.2,17.8s15.4,4.7,22.1,0.7"/>
<path class="st1" d="M372.3,320.5h-67.1c-4.3,0-7.7-4.9-7.7-11s3.5-11,7.7-11h67.1c4.3,0,7.7,4.9,7.7,11S376.5,320.5,372.3,320.5z"
	/>
<path class="st5" d="M552.5,344.5h-249c-3.3,0-6-2.7-6-6s2.7-6,6-6h249c3.3,0,6,2.7,6,6S555.8,344.5,552.5,344.5z"/>
<path class="st5" d="M424.7,368.5H303.5c-3.3,0-6-2.7-6-6s2.7-6,6-6h121.2c3.3,0,6,2.7,6,6S428,368.5,424.7,368.5z"/>
<rect y="700" class="st0" width="790" height="2"/>
<path class="st0" d="M499.6,371.5h0.1v17h0c-1.6,0-2.9,1.3-2.9,2.9v0l0,0v43.4c0,1.6,1.3,2.9,2.9,2.9h0V702h345.1V399.1l0,0
	c2.8,0,5.1-2.3,5.2-5.1l0,0v-74.7c0-2.8-2.3-5.1-5.2-5.1c0,0,0,0,0,0l0,0v-87.4c0-19.7-16-35.7-35.7-35.7H535.4
	c-19.7,0-35.7,16-35.7,35.7l0,0v44.8c-1.6,0-2.8,1.3-2.8,2.9v22.2c0,1.6,1.3,2.9,2.8,2.9v23.3h-0.1c-1.6,0-2.9,1.3-2.9,2.9v0l0,0
	v42.9C496.7,370.2,498,371.5,499.6,371.5z"/>
<path class="st1" d="M823.5,702V236.7c0-15.1-12.3-27.4-27.4-27.4h-39.5v4.8c0,12.4-10.1,22.5-22.5,22.6h-126
	c-12.5,0-22.6-10.1-22.6-22.6v-4.8h-37.1c-15.1,0-27.4,12.3-27.4,27.4V702H823.5z"/>
<path class="st1" d="M697.9,451.8l-21,21.6c-0.9,0.9-2.2,1.4-3.5,1.4h-0.1c-1.3,0-2.6-0.5-3.5-1.4l-21-21.6l-0.2-0.2
	c-1.7-1.9-1.7-4.8,0.2-6.5c0,0,0,0,0,0c2-1.9,5.1-1.9,7.1,0l12.4,13v-33.5c0-2.8,2.2-5,5-5s5,2.2,5,5V458l12.4-13
	c2-1.9,5.1-1.9,7.1,0l0.2,0.2C699.8,447.1,699.8,450,697.9,451.8z"/>
<path id="b06d66ec-6c84-45dd-8c27-1263a6253192-1307" class="st6" d="M645.9,372.4c0-8.7,4.7-16.8,12.2-21.2
	c-11.7-6.8-26.6-2.7-33.4,8.9c-6.8,11.7-2.7,26.6,8.9,33.4c7.6,4.4,16.9,4.4,24.5,0C650.6,389.2,645.9,381.1,645.9,372.4z"/>
<path id="e73810fe-4cf4-40cc-8c7c-ca544ce30bd4-1308" class="st6" d="M676.7,372.4c0-8.7,4.7-16.8,12.2-21.2
	c-11.7-6.8-26.6-2.7-33.4,8.9c-6.8,11.7-2.7,26.6,8.9,33.4c7.6,4.4,16.9,4.4,24.5,0C681.3,389.2,676.7,381.1,676.7,372.4z"/>
<circle id="a4813fcf-056e-4514-bb8b-e6506f49341f" class="st4" cx="706.7" cy="372.4" r="24.5"/>
<path id="bbe451c3-febc-41ba-8083-4c8307a2e73e-1309" class="st6" d="M747.6,448.7H605.1c-2.8,0-5.1-2.3-5.1-5.1V301.1
	c0-2.8,2.3-5.1,5.1-5.1h142.5c2.8,0,5.1,2.3,5.1,5.1v142.5C752.7,446.5,750.4,448.7,747.6,448.7z M605.1,298.1
	c-1.7,0-3.1,1.4-3.1,3.1v142.5c0,1.7,1.4,3.1,3.1,3.1h142.5c1.7,0,3.1-1.4,3.1-3.1V301.1c0-1.7-1.4-3.1-3.1-3.1H605.1z"/>
<rect id="bb28937d-932f-4fdf-befe-f406e51091fe" x="560.8" y="558" class="st6" width="218.6" height="2"/>
<circle id="fcef55fc-4968-45b2-93bb-1a1080c85fc7" class="st4" cx="567.7" cy="538.3" r="6.9"/>
<rect id="ff33d889-4c74-4b91-85ef-b4882cc8fe76" x="560.8" y="627" class="st6" width="218.6" height="2"/>
<circle id="e8fa0310-b872-4adf-aedd-0c6eda09f3b8" class="st4" cx="567.7" cy="607.3" r="6.9"/>
<path class="st4" d="M775.4,705.6h-69.1c-2.5,0-4.5-2-4.5-4.5v-24.2c0-2.5,2-4.5,4.5-4.5h69.1c2.5,0,4.5,2,4.5,4.5v24.2
	C779.9,703.6,777.9,705.6,775.4,705.6z"/>
<circle id="e12ee00d-aa4a-4413-a013-11d20b7f97f7" class="st4" cx="590.3" cy="538.3" r="6.9"/>
<circle id="f58f497e-6949-45c8-be5f-eee2aa0f6586" class="st4" cx="612.8" cy="538.3" r="6.9"/>
<circle id="b4d4939a-c6e6-4f4d-ba6c-e8b05485017d" class="st4" cx="590.3" cy="607.3" r="6.9"/>
<circle id="aff120b1-519b-4e96-ac87-836aa55663de" class="st4" cx="612.8" cy="607.3" r="6.9"/>
</svg>
